<?xml version="1.0" encoding="UTF-8" standalone="no"?>
<!DOCTYPE svg PUBLIC "-//W3C//DTD SVG 1.1//EN" "http://www.w3.org/Graphics/SVG/1.1/DTD/svg11.dtd">
<svg version="1.1" xmlns="http://www.w3.org/2000/svg" xmlns:xlink="http://www.w3.org/1999/xlink" preserveAspectRatio="xMidYMid meet" viewBox="329 73.02254098360663 23.6247605632459 29.717049286502657" width="19.62" height="25.72"><defs><path d="M338.58 99.74L330 78.03L331.14 76.6L339.72 98.3L338.58 99.74ZM339.21 75.15L339.93 76.41L340.4 78L340.4 78.05L343.15 78.05L343.16 78L343.63 76.41L344.35 75.15L345.26 74.32L346.31 74.02L347.35 74.32L348.27 75.15L348.98 76.41L349.46 78L349.62 79.84L349.46 81.68L348.98 83.28L348.27 84.54L347.35 85.37L346.31 85.66L345.26 85.37L344.35 84.54L343.63 83.28L343.16 81.68L342.99 79.84L340.57 79.84L340.4 81.68L339.93 83.28L339.21 84.54L338.3 85.37L337.25 85.66L336.2 85.37L335.29 84.54L334.57 83.28L334.1 81.68L333.93 79.84L334.1 78L334.57 76.41L335.29 75.15L336.2 74.32L337.25 74.02L338.3 74.32L339.21 75.15Z" id="c8aZ7fmpn1"></path></defs><g><g><use xlink:href="#c8aZ7fmpn1" opacity="1" fill="#f60418" fill-opacity="1"></use></g></g></svg>